<mxfile host="app.diagrams.net" modified="2023-08-08T12:02:29.214Z" agent="Mozilla/5.0 (Macintosh; Intel Mac OS X 10_15_7) AppleWebKit/537.36 (KHTML, like Gecko) Chrome/115.0.0.0 Safari/537.36" etag="uPakcuGPb0qsSLWRJ63K" version="21.6.6" type="github">
  <diagram name="Page-1" id="DcEvQeqvasYTz4TGwMYB">
    <mxGraphModel dx="954" dy="585" grid="1" gridSize="10" guides="1" tooltips="1" connect="1" arrows="1" fold="1" page="1" pageScale="1" pageWidth="850" pageHeight="1100" math="0" shadow="0">
      <root>
        <mxCell id="0" />
        <mxCell id="1" parent="0" />
        <mxCell id="U69p0bRvu_9BenOVW2IM-1" value="Pref Calculator" style="strokeWidth=1;shadow=0;dashed=0;align=center;html=1;shape=mxgraph.mockup.containers.window;align=left;verticalAlign=top;spacingLeft=8;strokeColor2=#008cff;strokeColor3=#c4c4c4;fontColor=#666666;mainText=;fontSize=17;labelBackgroundColor=none;whiteSpace=wrap;" vertex="1" parent="1">
          <mxGeometry x="150" y="30" width="340" height="460" as="geometry" />
        </mxCell>
        <mxCell id="U69p0bRvu_9BenOVW2IM-2" value="" style="verticalLabelPosition=bottom;shadow=0;dashed=0;align=center;html=1;verticalAlign=top;strokeWidth=3;shape=mxgraph.mockup.markup.line;strokeColor=#999999;" vertex="1" parent="1">
          <mxGeometry x="150" y="330" width="340" height="20" as="geometry" />
        </mxCell>
        <mxCell id="U69p0bRvu_9BenOVW2IM-3" value="" style="verticalLabelPosition=bottom;shadow=0;dashed=0;align=center;html=1;verticalAlign=top;strokeWidth=3;shape=mxgraph.mockup.markup.line;strokeColor=#999999;direction=north;" vertex="1" parent="1">
          <mxGeometry x="310" y="60" width="20" height="280" as="geometry" />
        </mxCell>
        <mxCell id="U69p0bRvu_9BenOVW2IM-4" value="" style="verticalLabelPosition=bottom;shadow=0;dashed=0;align=center;html=1;verticalAlign=top;strokeWidth=1;shape=mxgraph.mockup.markup.line;strokeColor=#999999;direction=north;" vertex="1" parent="1">
          <mxGeometry x="370" y="60" width="20" height="280" as="geometry" />
        </mxCell>
        <mxCell id="U69p0bRvu_9BenOVW2IM-5" value="" style="verticalLabelPosition=bottom;shadow=0;dashed=0;align=center;html=1;verticalAlign=top;strokeWidth=1;shape=mxgraph.mockup.markup.line;strokeColor=#999999;direction=north;" vertex="1" parent="1">
          <mxGeometry x="250" y="60" width="20" height="280" as="geometry" />
        </mxCell>
        <mxCell id="U69p0bRvu_9BenOVW2IM-6" value="" style="verticalLabelPosition=bottom;shadow=0;dashed=0;align=center;html=1;verticalAlign=top;strokeWidth=1;shape=mxgraph.mockup.markup.line;strokeColor=#999999;" vertex="1" parent="1">
          <mxGeometry x="150" y="380" width="340" height="20" as="geometry" />
        </mxCell>
        <mxCell id="U69p0bRvu_9BenOVW2IM-7" value="Line 1" style="strokeWidth=1;shadow=0;dashed=0;align=center;html=1;shape=mxgraph.mockup.text.textBox;fontColor=#666666;align=left;fontSize=17;spacingLeft=4;spacingTop=-3;whiteSpace=wrap;strokeColor=#666666;mainText=" vertex="1" parent="1">
          <mxGeometry x="170" y="90" width="80" height="30" as="geometry" />
        </mxCell>
        <mxCell id="U69p0bRvu_9BenOVW2IM-8" value="Calculate" style="strokeWidth=1;shadow=0;dashed=0;align=center;html=1;shape=mxgraph.mockup.buttons.button;strokeColor=#666666;fontColor=#ffffff;mainText=;buttonStyle=round;fontSize=17;fontStyle=1;fillColor=#008cff;whiteSpace=wrap;" vertex="1" parent="1">
          <mxGeometry x="270" y="450" width="100" height="30" as="geometry" />
        </mxCell>
      </root>
    </mxGraphModel>
  </diagram>
</mxfile>
